<svg width="641" height="519" viewBox="0 0 641 519" fill="none" xmlns="http://www.w3.org/2000/svg">
<path d="M323.582 67.6221C323.582 30.3128 353.343 0.0664062 390.055 0.0664062C426.767 0.0664062 456.528 30.3128 456.528 67.6221C456.528 104.932 426.767 135.178 390.055 135.178C353.343 135.178 323.582 104.932 323.582 67.6221Z" fill="#F285CC"/>
<path d="M321.418 265.959L321.418 133.013L254.945 133.013C218.232 133.013 188.472 162.774 188.472 199.486C188.472 236.198 218.232 265.959 254.945 265.959L321.418 265.959Z" fill="#1ABCF1"/>
<path d="M321.418 133.014L321.418 0.067461L254.945 0.0674551C218.232 0.0674519 188.472 29.8283 188.472 66.5404C188.472 103.253 218.232 133.014 254.945 133.014L321.418 133.014Z" fill="#0ACF86"/>
<path d="M188.471 332.432C188.471 295.721 218.232 265.959 254.944 265.959H321.417V332.432C321.417 369.144 291.656 398.905 254.944 398.905C218.232 398.905 188.471 369.144 188.471 332.432Z" fill="#F55728"/>
<path d="M323.582 332.432C323.582 295.721 353.343 265.959 390.055 265.959H456.528V332.432C456.528 369.144 426.768 398.905 390.055 398.905C353.343 398.905 323.582 369.144 323.582 332.432Z" fill="#FF7222"/>
<g filter="url(#filter0_d_219_419)">
<ellipse cx="323.583" cy="398.95" rx="127.403" ry="0.043305" fill="white"/>
</g>
<rect x="0.5" y="0.5" width="640" height="517.967" stroke="#D9D9D9"/>
<line x1="321.5" y1="-2.18557e-08" x2="321.5" y2="519" stroke="#D9D9D9"/>
<line y1="258.5" x2="641" y2="258.5" stroke="#D9D9D9"/>
<line y1="258.5" x2="641" y2="258.5" stroke="#D9D9D9"/>
<defs>
<filter id="filter0_d_219_419" x="182.18" y="398.906" width="282.807" height="34.0859" filterUnits="userSpaceOnUse" color-interpolation-filters="sRGB">
<feFlood flood-opacity="0" result="BackgroundImageFix"/>
<feColorMatrix in="SourceAlpha" type="matrix" values="0 0 0 0 0 0 0 0 0 0 0 0 0 0 0 0 0 0 127 0" result="hardAlpha"/>
<feMorphology radius="6" operator="dilate" in="SourceAlpha" result="effect1_dropShadow_219_419"/>
<feOffset dy="20"/>
<feGaussianBlur stdDeviation="4"/>
<feComposite in2="hardAlpha" operator="out"/>
<feColorMatrix type="matrix" values="0 0 0 0 0 0 0 0 0 0 0 0 0 0 0 0 0 0 0.55 0"/>
<feBlend mode="normal" in2="BackgroundImageFix" result="effect1_dropShadow_219_419"/>
<feBlend mode="normal" in="SourceGraphic" in2="effect1_dropShadow_219_419" result="shape"/>
</filter>
</defs>
</svg>
