<svg width="641" height="519" viewBox="0 0 641 519" fill="none" xmlns="http://www.w3.org/2000/svg">
  <g filter="url(#blurFilter)">
    <ellipse cx="320.5" cy="450" rx="150" ry="20" fill="black" opacity="0.85"/>
  </g>
<path d="M323.582 67.6221C323.582 30.3128 353.343 0.0664062 390.055 0.0664062C426.767 0.0664062 456.528 30.3128 456.528 67.6221C456.528 104.932 426.767 135.178 390.055 135.178C353.343 135.178 323.582 104.932 323.582 67.6221Z" fill="#F285CC"/>
<path d="M321.418 265.959L321.418 133.013L254.945 133.013C218.232 133.013 188.472 162.774 188.472 199.486C188.472 236.198 218.232 265.959 254.945 265.959L321.418 265.959Z" fill="#1ABCF1"/>
<path d="M321.418 133.014L321.418 0.067461L254.945 0.0674551C218.232 0.0674519 188.472 29.8283 188.472 66.5404C188.472 103.253 218.232 133.014 254.945 133.014L321.418 133.014Z" fill="#0ACF86"/>
<path d="M188.471 332.432C188.471 295.721 218.232 265.959 254.944 265.959H321.417V332.432C321.417 369.144 291.656 398.905 254.944 398.905C218.232 398.905 188.471 369.144 188.471 332.432Z" fill="#F55728"/>
<path d="M323.582 332.432C323.582 295.721 353.343 265.959 390.055 265.959H456.528V332.432C456.528 369.144 426.768 398.905 390.055 398.905C353.343 398.905 323.582 369.144 323.582 332.432Z" fill="#FF7222"/>


<defs>


    <filter id="blurFilter" x="160" y="420" width="301" height="8" filterUnits="userSpaceOnUse" color-interpolation-filters="sRGB">
      <feGaussianBlur stdDeviation="9"/>
    </filter>
</defs>
</svg>
